<svg version="1.1" width="461" height="267" viewBox="0 0 922 534"
   xmlns="http://www.w3.org/2000/svg"
   xmlns:svg="http://www.w3.org/2000/svg">
   <path class="path black" style="fill:#000000;stroke-width:1.33333" d="M 252.76421 33.596137 C 248.29542 33.914455 244.10245 35.889835 240.33647 39.547309 L 235.6353 44.111762 L 221.15874 44.371527 C 191.54758 44.899274 178.8034 47.989273 164.81694 58.037543 C 157.29438 63.44197 152.37908 65.251775 126.15092 72.262152 C 101.92029 78.738627 89.903279 83.826932 86.471237 89.064887 C 84.594092 91.929774 84.021446 95.334842 84.039596 103.53559 C 84.068339 116.52519 87.319756 124.30294 95.760299 131.57075 C 98.834118 134.21749 101.94884 137.00559 102.68217 137.76606 C 103.4155 138.52651 107.01551 142.25915 110.68217 146.06098 C 120.83877 156.59197 136.85191 165.06892 166.68217 175.70551 C 180.42079 180.60429 199.87376 190.61854 220.01616 203.16059 C 228.81615 208.64006 239.61616 215.03544 244.01616 217.37348 C 262.34734 227.11416 271.52459 239.75617 272.47514 256.57856 C 273.18927 269.21687 271.11257 276.02626 261.35405 293.04731 C 244.81376 321.89727 232.67053 346.82185 225.04155 367.58051 C 218.65128 384.96866 198.43529 444.95497 193.13335 462.26215 C 190.43116 471.0829 190.80038 470.85369 172.68217 474.92036 C 141.84045 481.84284 113.57708 504.72745 115.77006 521.00043 C 117.18725 531.51669 122.2713 534.25336 142.68217 535.49262 C 158.84604 536.47402 169.90362 537.43291 176.01616 538.38129 C 178.21616 538.72263 191.45913 539.36987 205.44585 539.82075 C 232.19016 540.6829 239.75162 539.83555 250.68217 534.74457 C 257.09335 531.75854 261.63077 527.55856 271.35014 515.60981 C 275.38348 510.65131 281.98283 502.57571 286.01616 497.6645 C 302.12986 478.0436 314.02364 463.34861 317.59233 458.65278 C 368.88114 391.16488 378.72398 379.41539 392.47319 369.25825 C 396.52118 366.26782 402.57396 362.777 405.92436 361.50043 L 412.01616 359.17817 L 419.42046 366.71918 C 426.76005 374.19456 438.69257 385.30862 447.46342 392.83832 C 480.24548 420.98146 507.39777 448.43676 512.45952 458.55903 C 520.50996 474.65801 523.28342 490.76343 519.55522 499.76411 C 518.04373 503.41317 516.88829 504.03829 508.12553 505.93989 C 487.40262 510.43692 469.05676 522.7518 462.97124 536.25239 C 458.40809 546.37561 460.37029 556.4683 467.68217 560.4809 C 469.54469 561.50301 480.03613 562.48812 495.35014 563.07856 C 520.32732 564.04156 539.58052 565.23861 555.35014 566.81098 C 572.50765 568.52176 584.69779 565.81406 594.90092 558.02582 L 600.98296 553.38325 L 604.50053 556.66254 C 611.21161 562.9186 615.92157 563.55771 655.35014 563.57661 C 696.36787 563.59631 708.51364 562.72015 724.01616 558.61957 C 735.97729 555.45574 741.23304 551.35794 748.42436 539.59418 C 758.07562 523.80639 766.53906 490.15407 769.38139 456.26215 C 769.84264 450.76216 770.46732 445.48314 770.76811 444.53168 C 771.12267 443.41012 774.11854 445.13421 779.28764 449.43598 C 802.31811 468.60213 829.80703 481.30507 869.35014 491.05317 C 878.15013 493.22254 887.4342 495.33942 889.981 495.75825 C 898.14319 497.10056 910.05703 501.2794 914.59819 504.39106 C 917.02342 506.05284 922.07692 511.65262 925.82866 516.83637 C 929.58038 522.02013 935.34451 529.99726 938.63921 534.56293 C 949.48682 549.59511 963.00507 556.86453 979.79936 556.6977 C 991.02521 556.58619 994.55949 554.36081 999.70366 544.16645 C 1004.5846 534.49394 1006.0975 524.65494 1006.0435 502.92817 C 1005.9149 451.61092 991.08535 410.92921 971.28764 407.58442 C 963.68704 406.30031 948.73053 400.00662 941.56499 395.07661 C 923.83172 382.8758 916.5258 367.97786 896.57085 303.31684 C 895.16565 298.76351 894.01616 294.07799 894.01616 292.90473 C 894.01616 291.73145 893.42274 291.13834 892.6978 291.58637 C 891.96748 292.03774 891.70428 291.55438 892.10796 290.50239 C 892.92496 288.3733 878.78294 244.59037 873.94194 234.26215 C 872.22331 230.59549 870.76149 227.29483 870.69389 226.92817 C 870.62624 226.5615 869.5461 224.34149 868.2935 221.99457 C 865.26829 216.32641 865.33417 216.0576 870.55913 212.67426 C 873.51757 210.75858 875.87855 207.63401 877.42436 203.58637 C 879.63496 197.79802 879.64534 196.98631 877.59038 190.46723 C 870.41509 167.7046 826.90716 137.73722 773.39702 118.69965 C 742.31454 107.64129 711.25524 100.84933 679.35014 98.135199 C 666.81146 97.06857 614.64922 97.13069 600.01616 98.228949 C 581.7819 99.597488 571.93791 100.39192 566.01616 100.97309 C 554.18963 102.13377 524.99818 105.69698 505.66069 108.34028 L 485.97319 111.03168 L 475.35991 107.67817 C 458.10159 102.22627 439.85744 99.08884 420.68217 98.273871 C 383.16181 96.679233 381.85248 96.379616 362.7271 85.027777 C 337.00869 69.762657 306.92236 56.429569 288.68217 52.215277 C 283.29159 50.969814 280.11254 49.241632 276.68217 45.689887 C 268.42221 37.137669 260.21218 33.065607 252.76421 33.596137 z M 629.6978 406.44965 C 631.08563 406.58462 631.47641 407.78591 632.08061 411.46332 C 632.57453 414.46953 636.46627 429.05919 640.72905 443.8852 C 649.66222 474.95497 650.95783 482.77946 648.71342 492.1352 C 646.8679 499.82827 643.65562 502.72146 629.62358 509.32856 C 624.64066 511.67481 620.32536 513.59418 620.03374 513.59418 C 619.7421 513.59418 619.80882 512.24418 620.18217 510.59418 C 623.65081 495.26447 624.66536 480.54194 624.67436 445.41645 L 624.68217 407.23872 L 627.93217 406.61762 C 628.66105 406.47829 629.23519 406.40466 629.6978 406.44965 z " transform="translate(-84.039596,-33.551215)" />
   <path class="path white" style="fill:#ffffff;stroke-width:1.33333" d="m 582.47381,555.13635 c 7.32684,-3.26994 17.5967,-14.49131 21.64944,-23.65526 10.02072,-22.65864 13.1105,-47.03189 11.90185,-93.88606 -0.52011,-20.16274 -1.73805,-40.19938 -2.83667,-46.66667 -2.89213,-17.02545 -11.7761,-50.32882 -19.02877,-71.33333 -3.545,-10.26667 -6.84191,-19.86667 -7.32647,-21.33333 -0.48456,-1.46667 0.9881,1.23333 3.27258,6 5.74164,11.98018 21.6206,60.02584 26.12261,79.0403 3.63741,15.36277 3.79271,15.69241 7.08675,15.04227 23.61133,-4.66018 89.90129,-5.74868 105.71308,-1.73586 14.32328,3.63506 20.99243,7.71667 29.24075,17.89579 31.4662,38.83189 62.43265,56.43353 123.74735,70.33922 37.69259,8.54838 39.90859,9.86986 55.86836,33.31632 15.11608,22.20699 26.19849,30.10195 42.25512,30.10195 4.64875,0 6.24011,-0.71381 9.05846,-4.06323 1.88044,-2.23477 4.33906,-7.1615 5.46361,-10.94828 7.63984,-25.72594 -0.16969,-86.33789 -13.91641,-108.00987 -4.351,-6.85942 -4.4447,-6.9123 -21.57038,-12.17255 -6.32936,-1.94411 -15.20535,-5.92449 -19.72444,-8.84532 C 916.56287,389.42936 908.52959,373.824 887.30686,302.92836 880.61135,280.5617 873.00634,256.5617 870.40683,249.59503 865.8928,237.4975 855.26255,214.97619 852.55575,211.77567 c -0.70424,-0.83268 -4.85162,-7.00479 -9.21642,-13.71581 -9.61893,-14.78944 -23.0241,-28.87973 -34.52974,-36.29453 -4.69703,-3.027 -7.924,-5.50363 -7.17107,-5.50363 0.75293,0 6.09596,3.07776 11.87337,6.83946 12.25923,7.98202 24.85278,20.52597 35.17108,35.03257 6.86766,9.65529 7.58735,10.26197 11.33334,9.55375 4.61888,-0.87326 10,-6.36719 10,-10.20962 0,-5.67786 -4.47759,-12.7616 -13.77172,-21.78746 -32.93371,-31.9831 -99.05505,-58.98627 -165.56162,-67.6134 -19.56249,-2.53762 -83.43587,-2.14566 -113.33334,0.69547 -26.57059,2.52498 -73.94089,8.39764 -79.68597,9.87895 -3.54784,0.91477 -3.27302,1.22327 7.33333,8.2322 12.23156,8.08291 31.17583,25.67687 41.17107,38.2365 9.0032,11.31306 20.41917,31.00054 25.27044,43.58033 2.23232,5.7886 3.80601,10.77748 3.49709,11.08641 -0.30893,0.30892 -1.91826,-3.0658 -3.57632,-7.49939 -3.7987,-10.15765 -14.51391,-28.92497 -22.47208,-39.3591 -8.81295,-11.55485 -26.48039,-28.71425 -37.77276,-36.68659 -27.63707,-19.51156 -53.24446,-27.23625 -97.09814,-29.29049 -30.7074,-1.43842 -37.05712,-3.02349 -55.08568,-13.750956 -30.90753,-18.390816 -57.94208,-29.642737 -83.74276,-34.854192 -25.0465,-5.059118 -44.8931,-6.522294 -65.1479,-4.802982 -21.40464,1.816917 -27.78245,3.710298 -40.53042,12.032257 -10.09099,6.587467 -14.72935,8.264549 -44.49325,16.087326 -6.05,1.590111 -11,3.310701 -11,3.823531 0,0.51284 0.88092,2.09711 1.9576,3.5206 2.74119,3.62418 2.53287,10.39767 -0.40146,13.053196 -1.34412,1.21641 -5.39412,3.19229 -9,4.39084 -11.076214,3.6816 -13.567949,7.65881 -9.084846,14.50089 2.238182,3.41589 9.335816,8.351 13.453046,9.35414 1.32495,0.32283 5.709,1.53575 9.74233,2.69539 4.03333,1.15965 12.87992,2.21764 19.65909,2.35108 9.57355,0.18845 11.35987,0.49473 8,1.37168 -2.37917,0.62097 -11.07576,0.91669 -19.32576,0.65715 -8.25,-0.25954 -15,-0.0906 -15,0.37548 0,1.86613 14.62372,11.86069 24.66667,16.8584 5.86667,2.91944 16.96667,7.53084 24.66667,10.24753 19.05297,6.72223 37.22897,15.72313 58.66667,29.05223 9.9,6.15541 21.81897,13.22193 26.48661,15.70337 25.87016,13.75328 37.76302,37.36356 32.10643,63.73932 -0.77384,3.60825 -4.13783,11.28778 -7.47555,17.06562 -15.2048,26.32068 -23.64371,42.66848 -31.58596,61.18815 -7.75109,18.0739 -32.45064,88.39009 -39.41223,112.20118 -3.72585,12.7437 -6.77546,15.20158 -23.65772,19.06725 -23.03249,5.27393 -42.54391,16.163 -49.98461,27.89576 -4.1795,6.59039 -4.81853,10.98956 -1.94301,13.37603 1.03855,0.86192 10.35881,2.11845 20.99999,2.83117 10.52299,0.7048 25.73271,1.97167 33.79938,2.81525 8.06667,0.84359 23.06667,1.5846 33.33333,1.64668 21.46998,0.12987 30.79866,-2.0499 38.6318,-9.02672 5.93571,-5.2868 53.98303,-64.72322 77.73097,-96.15625 39.43961,-52.2027 54.75152,-67.60654 73.51829,-73.95973 l 6.6433,-2.24897 -4.67522,-6.56232 c -8.78784,-12.33496 -30.28762,-60.56825 -28.01228,-62.84361 0.31023,-0.31021 1.27308,1.72617 2.1397,4.52531 3.18472,10.28665 20.28981,42.76618 28.66126,54.42266 13.2536,18.45441 17.11426,22.46713 48.9395,50.86702 34.52484,30.80895 52.562,48.72036 59.32925,58.91568 13.39924,20.18679 16.38471,51.26883 5.84096,60.81079 -1.36949,1.23937 -6.29793,3.0573 -10.95208,4.03986 -12.07056,2.54824 -22.14606,6.68191 -29.53173,12.11594 -6.99737,5.14834 -14.26371,15.37928 -14.26371,20.08317 0,6.054 2.3021,6.68693 28.21863,7.7584 13.44643,0.55592 33.44804,1.79804 44.44804,2.76028 23.3851,2.04564 33.48094,1.60134 41.12418,-1.80982 z" transform="translate(-84.039596,-33.551215)" />
   <path class="path white" style="fill:#ffffff;stroke-width:1.33333" d="m 701.34964,553.49374 c 25.73446,-2.73597 32.03725,-5.7443 39.77602,-18.98518 10.40196,-17.79754 19.7524,-62.24326 21.1197,-100.38887 0.33685,-9.3976 0.29285,-9.53121 -5.36239,-16.28578 -3.13611,-3.74574 -7.49153,-8.31622 -9.67871,-10.1566 -8.26109,-6.95126 -30.97488,-11.41562 -58.08036,-11.41562 -14.82678,0 -48.55991,2.36948 -49.70008,3.49104 -1.04833,1.03122 2.54716,16.03831 10.12481,42.25967 5.70151,19.72921 7.55756,28.40426 8.11199,37.91473 1.21119,20.77672 -3.39495,27.92968 -24.16431,37.52515 -11.77984,5.4423 -17.24222,10.67348 -22.23389,21.2928 -3.3694,7.1681 -2.55188,11.73048 2.45779,13.71627 8.51817,3.37656 59.88775,3.98175 87.62943,1.03239 z" transform="translate(-84.039596,-33.551215)" />
   <path class="path white" style="fill:#ffffff;stroke-width:1.33333" d="m 267.91909,49.418763 c -7.76236,-8.25098 -16.21004,-9.128187 -22.69736,-2.35689 l -3.70435,3.86651 5.91612,0.143914 c 3.25387,0.07915 9.81612,0.846959 14.58279,1.706233 4.76667,0.859276 8.92292,1.388256 9.23613,1.175511 0.3132,-0.212744 -1.1868,-2.25362 -3.33333,-4.535278 z" transform="translate(-84.039596,-33.551215)" />
   <path class="path black" style="fill:#000000;stroke-width:1.33333" d="m 179.39653,92.349374 c -0.75914,-1.41846 -1.38024,-3.63563 -1.38024,-4.92705 0,-1.29141 -1.61226,-4.03086 -3.58279,-6.087651 l -3.58279,-3.739625 h 5.38562 c 9.81934,0 19.64465,9.873376 15.17941,15.253666 -2.51028,3.02471 -10.30655,2.7008 -12.01921,-0.49934 z" transform="translate(-84.039596,-33.551215)" />
   <path class="path black" style="fill:#000000;stroke-width:1.33333" d="m 295.426,117.59504 c -0.0224,-1.1 1.3882,-6.47884 3.1346,-11.95298 3.31552,-10.392606 3.31016,-14.651426 -0.0249,-19.773196 -3.28216,-5.040539 -7.78492,-5.962312 -17.02574,-3.48539 -17.42982,4.6719 -19.01408,4.1814 -4.33492,-1.342137 11.99977,-4.515322 15.65842,-4.40335 21.42021,0.655563 6.35696,5.581484 7.27607,11.149784 3.46135,20.97014 -1.62255,4.17706 -3.76906,9.69467 -4.77,12.26133 -1.00094,2.56667 -1.83819,3.76667 -1.86056,2.66667 z" transform="translate(-84.039596,-33.551215)" />
</svg>
